<?xml version="1.0" encoding="UTF-8"?>
<svg width="16px" height="16px" viewBox="0 0 16 16" version="1.1" xmlns="http://www.w3.org/2000/svg" xmlns:xlink="http://www.w3.org/1999/xlink">
    <!-- Generator: Sketch 51.2 (57519) - http://www.bohemiancoding.com/sketch -->
    <title>icon_x</title>
    <desc>Created with Sketch.</desc>
    <defs></defs>
    <g id="ERROR/CONFIRMATION-IN-PAGE" stroke="none" stroke-width="1" fill="none" fill-rule="evenodd" fill-opacity="0.5">
        <g id="error-message---desktop" transform="translate(-1766.000000, -392.000000)" fill="#FFFFFF">
            <g id="Group-12-Copy" transform="translate(1301.000000, 359.000000)">
                <path d="M473.788936,40.7280395 L480.236883,47.1759857 C480.529776,47.4688789 480.529776,47.9437527 480.236883,48.2366459 C479.943989,48.5295391 479.469116,48.5295391 479.176223,48.2366459 L472.728276,41.7886996 L466.28033,48.2366459 C465.987437,48.5295391 465.512563,48.5295391 465.21967,48.2366459 C464.926777,47.9437527 464.926777,47.4688789 465.21967,47.1759857 L471.667616,40.7280395 L465.219907,34.2803301 C464.927014,33.9874369 464.927014,33.5125631 465.219907,33.2196699 C465.5128,32.9267767 465.987674,32.9267767 466.280567,33.2196699 L472.728276,39.6673793 L479.175986,33.2196699 C479.468879,32.9267767 479.943753,32.9267767 480.236646,33.2196699 C480.529539,33.5125631 480.529539,33.9874369 480.236646,34.2803301 L473.788936,40.7280395 Z" id="icon_x"></path>
            </g>
        </g>
    </g>
</svg>