<svg width="12" height="12" viewBox="0 0 12 12" fill="none" xmlns="http://www.w3.org/2000/svg">
<path d="M0.138714 5.68843C0.986179 6.66443 2.49549 8.28298 2.49549 8.28298C2.49549 8.28298 2.25336 10.0561 2.10808 11.2679C2.04351 11.8861 2.5197 12.1545 3.0524 11.9105C4.06936 11.4306 5.61901 10.6823 5.96607 10.5115C6.32121 10.6742 7.87893 11.4143 8.90397 11.8942C9.44473 12.1301 9.92093 11.8698 9.86443 11.2517C9.72723 10.0398 9.47702 8.27483 9.47702 8.27483C9.47702 8.27483 11.0025 6.66442 11.858 5.68841C12.1647 5.33054 11.9629 4.82627 11.3656 4.7368C10.1388 4.5172 8.24212 4.16746 8.24212 4.16746C8.24212 4.16746 7.20095 2.36183 6.54718 1.2557C6.18398 0.580622 5.93377 0.661958 5.89341 0.678228C5.78042 0.710767 5.60285 0.849024 5.37685 1.2557C4.73116 2.36184 3.70613 4.16747 3.70613 4.16747C3.70613 4.16747 1.83362 4.51722 0.622952 4.73681C0.033761 4.82629 -0.159946 5.33869 0.13868 5.68843H0.138714Z" fill="#FFC319"/>
</svg>
